Coordinates
version=1
nRows=26
nColumns=24
inDegrees=yes

Units are S.I. units (second, meters, Newtons, ...)
Angles are in degrees.

endheader
time	pelvis_tilt	pelvis_list	pelvis_rotation	pelvis_tx	pelvis_ty	pelvis_tz	hip_flexion_r	hip_adduction_r	hip_rotation_r	knee_angle_r	ankle_angle_r	subtalar_angle_r	mtp_angle_r	hip_flexion_l	hip_adduction_l	hip_rotation_l	knee_angle_l	ankle_angle_l	subtalar_angle_l	mtp_angle_l	lumbar_extension	lumbar_bending	lumbar_rotation
      4.06000000	     -4.13818106	      3.47059617	      9.05479943	     -0.31353599	     -0.03293769	     -0.11892514	     35.08831946	     -3.75646604	     -4.13607496	    -16.70445340	      2.85868701	     11.47340516	     10.00999918	    -11.84232357	      7.12214091	      2.07132514	    -20.21194270	     11.77022866	     23.86488639	      0.36304726	      2.55226732	     -7.64813166	    -11.26157397
      4.06500000	     -4.14444989	      3.30971526	      9.05019506	     -0.30565572	     -0.03324890	     -0.11863211	     34.93789526	     -3.44846523	     -4.04135800	    -17.22608020	      1.94776644	     10.50762947	     10.99506602	    -11.87908456	      6.69913108	      1.63627818	    -20.76216137	      9.96989441	     24.35507110	      4.96101704	      2.74270135	     -7.44530535	    -11.13526060
      4.07000000	     -4.26869947	      3.09209853	      9.11196823	     -0.29782081	     -0.03368840	     -0.11843973	     34.96875509	     -3.17478519	     -4.15857094	    -17.95439643	      1.54800055	     10.24053313	     10.96311043	    -11.55734862	      6.19947757	      1.07910778	    -21.97916973	      9.23607716	     25.46581117	      5.50770592	      3.05486328	     -7.20092331	    -11.08426862
      4.07500000	     -4.29755721	      2.84774153	      9.07594607	     -0.28991764	     -0.03390329	     -0.11805592	     34.85046081	     -2.75492587	     -4.00727566	    -18.49428434	      0.52647345	      9.25254988	     11.43710174	    -11.43888084	      5.64947374	      0.50582060	    -22.67922633	      7.24938452	     26.13357177	     10.26792036	      3.28361112	     -6.90918135	    -10.90220808
      4.08000000	     -4.41607290	      2.55049316	      9.04362365	     -0.28197491	     -0.03416509	     -0.11770339	     34.86101482	     -2.31479071	     -3.92993012	    -19.12285792	     -0.26327806	      8.63291328	     11.39457594	    -11.10268963	      5.03358403	     -0.14842840	    -23.68335260	      5.61252620	     27.08776374	     13.23018835	      3.62479111	     -6.57208729	    -10.73441778
      4.08500000	     -4.58094220	      2.25029493	      8.89415551	     -0.27409474	     -0.03449362	     -0.11715521	     34.96489728	     -1.77764956	     -3.58564032	    -19.77052986	     -1.18560809	      7.84054474	     11.22474361	    -10.62881176	      4.41495705	     -0.92535358	    -24.90796341	      4.17722674	     28.21598155	     14.84523036	      4.00949729	     -6.22997686	    -10.42572191
      4.09000000	     -4.67058818	      1.84905797	      8.89989617	     -0.26612914	     -0.03454544	     -0.11688752	     34.92789948	     -1.26278402	     -3.59982607	    -20.33706078	     -2.02964361	      7.32874907	     11.20653538	    -10.24899908	      3.64799215	     -1.49640186	    -25.81691042	      1.81241872	     29.00199459	     19.49932056	      4.33294680	     -5.77375214	    -10.29932220
      4.09500000	     -4.87584779	      1.49540664	      8.75738382	     -0.25829320	     -0.03480947	     -0.11632589	     35.08446457	     -0.65450552	     -3.11869151	    -21.00115345	     -2.94645542	      6.50445975	     10.75204958	     -9.61644901	      2.95324336	     -2.15905010	    -27.14798852	      0.00761744	     30.03499329	     21.08522694	      4.75584299	     -5.38443471	    -10.02077403
      4.10000000	     -4.98351283	      1.05395302	      8.69610774	     -0.25032303	     -0.03488264	     -0.11599102	     35.10406654	     -0.04481399	     -2.97308417	    -21.65368672	     -3.59326160	      6.16191478	     10.37507143	     -9.11272543	      2.13274257	     -2.73657945	    -28.16817333	     -2.63579008	     30.73070037	     25.41505450	      5.10803932	     -4.87503604	     -9.82238949
      4.10500000	     -5.14890119	      0.63959025	      8.59757998	     -0.24245317	     -0.03506396	     -0.11556161	     35.20789725	      0.59065885	     -2.59242128	    -22.34866729	     -4.25686880	      5.64340971	      9.92603218	     -8.45206891	      1.36306020	     -3.22048648	    -29.43452161	     -5.06767801	     31.39245591	     27.93275104	      5.49733428	     -4.41213281	     -9.60435947
      4.11000000	     -5.38154982	      0.17805918	      8.51472278	     -0.23460344	     -0.03534955	     -0.11519868	     35.38246740	      1.25053677	     -2.22382201	    -23.03861318	     -4.90288153	      5.16374408	      9.60129409	     -7.61142699	      0.56877087	     -3.54728541	    -30.97322004	     -7.19105366	     32.10435176	     28.44878640	      5.96620576	     -3.90173105	     -9.41465024
      4.11500000	     -5.47308708	     -0.19184072	      8.37407887	     -0.22680046	     -0.03550694	     -0.11477794	     35.39112477	      1.89305287	     -1.73643059	    -23.75334931	     -5.31415321	      4.67278155	      9.09367723	     -6.97497827	     -0.12659721	     -3.93613246	    -32.16762959	    -10.23600794	     32.09690939	     31.46133985	      6.25207156	     -3.46402949	     -9.15214184
      4.12000000	     -5.66001571	     -0.64382494	      8.28981208	     -0.21901814	     -0.03583218	     -0.11443222	     35.48634641	      2.55280843	     -1.40200735	    -24.41261505	     -5.71200858	      4.20719193	      8.88439079	     -6.08821022	     -0.88917924	     -4.13061595	    -33.75445060	    -12.66780850	     32.33989757	     31.63173775	      6.65257183	     -2.96397805	     -8.97156383
      4.12500000	     -5.78115184	     -1.08892432	      8.15001722	     -0.21134579	     -0.03610983	     -0.11411554	     35.49462180	      3.23816908	     -1.03411017	    -25.03376037	     -6.06540282	      3.77150760	      8.69567385	     -5.23574733	     -1.60478653	     -4.30556380	    -35.33650937	    -15.26118220	     32.09876101	     31.68209788	      6.95537885	     -2.43143850	     -8.75235268
      4.13000000	     -5.80800068	     -1.54568165	      8.04543107	     -0.20367762	     -0.03636041	     -0.11379497	     35.37147936	      3.91533892	     -0.82036504	    -25.61623520	     -6.17894045	      3.41755443	      8.64295390	     -4.43023074	     -2.35451017	     -4.49075979	    -36.96216602	    -17.89337325	     31.59423716	     31.35856442	      7.16301268	     -1.90764866	     -8.55496936
      4.13500000	     -5.92281709	     -1.99244041	      7.87053935	     -0.19612459	     -0.03669644	     -0.11334559	     35.32119416	      4.63767689	     -0.45227853	    -26.13783234	     -6.42124905	      2.83736239	      8.55128831	     -3.48841254	     -3.04484015	     -4.61908296	    -38.59934581	    -20.58654433	     30.83098700	     30.83777187	      7.43686137	     -1.39201551	     -8.31158354
      4.14000000	     -5.95196334	     -2.47966680	      7.69815174	     -0.18860483	     -0.03699616	     -0.11295890	     35.13972573	      5.38054218	     -0.26880770	    -26.58065471	     -6.46190619	      2.36137660	      8.57205626	     -2.58484052	     -3.79079379	     -4.81164250	    -40.28654989	    -23.24444318	     29.75564250	     29.98202808	      7.61485041	     -0.81168865	     -8.08886422
      4.14500000	     -6.08974831	     -2.94345910	      7.49000721	     -0.18122408	     -0.03741676	     -0.11242075	     35.05895931	      6.12665882	      0.02855767	    -26.93902116	     -6.79804593	      1.58664266	      9.18597087	     -1.46511470	     -4.47844642	     -4.92987364	    -42.23518095	    -25.28784040	     28.69084767	     26.82708314	      7.88996874	     -0.29694132	     -7.82805799
      4.15000000	     -6.15762181	     -3.41923217	      7.21067717	     -0.17390755	     -0.03778979	     -0.11175818	     34.88512155	      6.93991788	      0.31954549	    -27.29102186	     -6.90535764	      0.93748528	      9.39264560	     -0.41392504	     -5.20862900	     -5.20328838	    -44.11392913	    -27.41976368	     27.26256329	     24.15165404	      8.07076724	      0.24942728	     -7.48893150
      4.15500000	     -6.17191607	     -3.92716430	      6.98466359	     -0.16662598	     -0.03803667	     -0.11122226	     34.58475804	      7.75224120	      0.54892056	    -27.51994368	     -6.94475029	      0.31063720	      9.71268139	      0.63170655	     -5.95409827	     -5.36718681	    -46.04469563	    -29.19518234	     25.66276136	     20.68487132	      8.19851321	      0.83958321	     -7.19362965
      4.16000000	     -6.17565510	     -4.43939325	      6.74789904	     -0.15945625	     -0.03825474	     -0.11059404	     34.24964945	      8.59171191	      0.79746047	    -27.70350251	     -6.95802426	     -0.35891549	      9.93678804	      1.70883522	     -6.72105987	     -5.55724128	    -47.99729918	    -30.70004764	     23.93876847	     17.03743016	      8.29323744	      1.41937096	     -6.90906383
      4.16500000	     -6.17244097	     -4.94784439	      6.50347509	     -0.15237204	     -0.03842746	     -0.10992198	     33.87841976	      9.44228599	      1.06620465	    -27.83981082	     -6.94411894	     -1.04918134	     10.05984726	      2.80852643	     -7.48704159	     -5.74156145	    -49.95906771	    -31.84221342	     22.14086642	     13.19734539	      8.36379115	      1.98955571	     -6.62180164
      4.17000000	     -6.15175736	     -5.45764882	      6.27822247	     -0.14538036	     -0.03851670	     -0.10926198	     33.46505751	     10.28283524	      1.27806229	    -27.93420260	     -6.89965397	     -1.72559578	     10.06157771	      3.92649582	     -8.25425417	     -5.88734833	    -51.91914284	    -32.59635253	     20.33856270	      9.28005067	      8.40325596	      2.55748022	     -6.33573166
      4.17500000	     -6.16217282	     -5.93360224	      6.01645748	     -0.13843633	     -0.03860666	     -0.10853681	     33.04334000	     11.13697842	      1.69540494	    -27.99552036	     -6.80361968	     -2.46632440	      9.90656135	      5.07064516	     -8.96706382	     -6.02776901	    -53.83349446	    -32.94411753	     18.51299692	      5.70707159	      8.46342939	      3.08714399	     -6.02384946
      4.18000000	     -6.12569191	     -6.40848270	      5.82367072	     -0.13158948	     -0.03851054	     -0.10796582	     32.54807230	     11.92321682	      1.92734833	    -28.00675537	     -6.64699077	     -3.04418011	      9.69189600	      6.21029231	     -9.65100426	     -6.04817771	    -55.71330294	    -32.92989848	     16.79502192	      2.18706507	      8.46842900	      3.61380603	     -5.77870351
      4.18500000	     -6.15670926	     -6.82465070	      5.55896634	     -0.12477465	     -0.03844020	     -0.10727481	     32.09169923	     12.71066749	      2.38251204	    -28.00664396	     -6.49866746	     -3.73562390	      9.33996420	      7.38490809	    -10.25259251	     -6.10537785	    -57.48914756	    -32.61619264	     15.15341168	     -0.44234453	      8.53123137	      4.07888265	     -5.44231194
